<?xml version="1.0" encoding="utf-8"?>
<!-- Generator: Adobe Illustrator 21.1.0, SVG Export Plug-In . SVG Version: 6.00 Build 0)  -->
<svg version="1.1" id="Layer_1" xmlns="http://www.w3.org/2000/svg" xmlns:xlink="http://www.w3.org/1999/xlink" x="0px" y="0px"
	 viewBox="0 0 124.6 40.3" style="enable-background:new 0 0 124.6 40.3;" xml:space="preserve">
<style type="text/css">
	.st0{fill:#FFFFFF;}
</style>
<path class="st0" d="M33,6.2c-6.5-4.6-15.6-3.1-20.3,3.3c0.4,0,0.8,0.2,1.2,0.4c1.1,0.8,1.3,2.3,0.6,3.4c-0.8,1.1-2.3,1.3-3.4,0.6
	c-0.2-0.1-0.3-0.3-0.4-0.4c-0.4,1.2-0.6,2.5-0.7,3.8c7.9,6,17.5,4.5,20.4,3.9c0.5-0.1,1,0.2,1,0.7c0,3.6-4.6,8.8-13.6,6.7
	C15.2,28,13.3,27,12,25.7c1,1.7,2.4,3.2,4.1,4.4c2.1,1.5,4.4,2.3,6.8,2.6c1.5,1.5,3.1,2.9,4.9,4c0.3,0.2,0.6-0.1,0.5-0.4
	c-0.3-0.8-0.6-2-0.6-3.9c3.4-0.8,6.6-2.7,8.8-5.8C41.2,20.1,39.6,10.9,33,6.2z M29,17.3c-1.1,1.5-3.1,1.9-4.6,0.8
	c-1.5-1.1-1.9-3.1-0.8-4.6c1.1-1.5,3.1-1.9,4.6-0.8C29.7,13.7,30.1,15.7,29,17.3z"/>
<g>
	<path class="st0" d="M57.1,14v16.8c0,0.4-0.3,0.7-0.7,0.7h-1.5c-0.4,0-0.7-0.4-0.7-0.7V14c0-1.3-1.1-2.4-2.4-2.4
		c-1.3,0-2.4,1.1-2.4,2.4v16.8c0,0.4-0.3,0.7-0.7,0.7h-1.5c-0.4,0-0.7-0.4-0.7-0.7V14c0-2.9,2.4-5.3,5.4-5.3
		C54.7,8.7,57.1,11.1,57.1,14z"/>
	<path class="st0" d="M71.6,14.1v16.8c0,0.4-0.3,0.7-0.7,0.7h-1.5c-0.4,0-0.7-0.3-0.7-0.7v-9.2h-4.8v9.2c0,0.4-0.3,0.7-0.7,0.7h-1.5
		c-0.4,0-0.7-0.3-0.7-0.7V14.1c0-2.9,2.4-5.3,5.4-5.3C69.2,8.8,71.6,11.2,71.6,14.1z M68.6,14.1c0-1.3-1.1-2.4-2.4-2.4
		c-1.3,0-2.4,1.1-2.4,2.4v4.6h4.8V14.1z"/>
	<path class="st0" d="M93.8,14v16.8c0,0.4-0.3,0.7-0.7,0.7h-1.5c-0.4,0-0.7-0.4-0.7-0.7V14c0-1.3-1.1-2.4-2.4-2.4
		c-1.3,0-2.4,1.1-2.4,2.4v16.8c0,0.4-0.3,0.7-0.7,0.7h-1.5c-0.4,0-0.7-0.4-0.7-0.7V14c0-1.3-1.1-2.4-2.4-2.4c-1.3,0-2.4,1.1-2.4,2.4
		v16.8c0,0.4-0.3,0.7-0.7,0.7h-1.5c-0.4,0-0.7-0.4-0.7-0.7V14c0-2.9,2.4-5.3,5.4-5.3c1.5,0,2.9,0.6,3.8,1.7c1-1,2.4-1.7,3.8-1.7
		C91.4,8.7,93.8,11.1,93.8,14z"/>
	<path class="st0" d="M100.6,30.9c0,0.4-0.3,0.7-0.7,0.7h-1.5c-0.4,0-0.7-0.3-0.7-0.7V9.5c0-0.4,0.3-0.7,0.7-0.7h1.5
		c0.4,0,0.7,0.3,0.7,0.7V30.9z"/>
	<path class="st0" d="M112.6,9.5v1.5c0,0.4-0.3,0.7-0.7,0.7h-2.1v19.2c0,0.4-0.3,0.7-0.7,0.7h-1.5c-0.4,0-0.7-0.4-0.7-0.7V11.7h-2.1
		c-0.4,0-0.7-0.3-0.7-0.7V9.5c0-0.4,0.3-0.7,0.7-0.7h7.1C112.3,8.7,112.6,9,112.6,9.5z"/>
</g>
</svg>
